<mxfile host="app.diagrams.net" agent="Mozilla/5.0 (X11; Ubuntu; Linux x86_64; rv:137.0) Gecko/20100101 Firefox/137.0" version="28.2.5">
  <diagram id="sSRwYoDEXDcCKQcZARil" name="Page-1">
    <mxGraphModel dx="2038" dy="638" grid="1" gridSize="10" guides="1" tooltips="1" connect="1" arrows="1" fold="1" page="1" pageScale="1" pageWidth="850" pageHeight="1100" math="0" shadow="0">
      <root>
        <mxCell id="0" />
        <mxCell id="1" parent="0" />
        <mxCell id="27" style="edgeStyle=none;html=1;" parent="1" source="24" target="2" edge="1">
          <mxGeometry relative="1" as="geometry" />
        </mxCell>
        <mxCell id="24" value="Android layout" style="text;html=1;align=center;verticalAlign=middle;whiteSpace=wrap;rounded=0;" parent="1" vertex="1">
          <mxGeometry x="197.5" y="60" width="225" height="30" as="geometry" />
        </mxCell>
        <mxCell id="28" value="" style="group" parent="1" vertex="1" connectable="0">
          <mxGeometry x="205" y="110" width="220" height="460" as="geometry" />
        </mxCell>
        <mxCell id="2" value="" style="rounded=0;whiteSpace=wrap;html=1;" parent="28" vertex="1">
          <mxGeometry width="220" height="460" as="geometry" />
        </mxCell>
        <mxCell id="3" value="Mic icon" style="ellipse;whiteSpace=wrap;html=1;" parent="28" vertex="1">
          <mxGeometry x="70" y="220" width="80" height="80" as="geometry" />
        </mxCell>
        <mxCell id="4" value="&lt;font style=&quot;color: rgb(102, 102, 102);&quot;&gt;Tab to speak to ZEN&lt;/font&gt;" style="text;html=1;align=center;verticalAlign=middle;whiteSpace=wrap;rounded=0;" parent="28" vertex="1">
          <mxGeometry y="300" width="220" height="40" as="geometry" />
        </mxCell>
        <mxCell id="10" value="" style="group" parent="28" vertex="1" connectable="0">
          <mxGeometry x="10" y="40" width="30" height="20" as="geometry" />
        </mxCell>
        <mxCell id="7" value="" style="endArrow=none;html=1;" parent="10" edge="1">
          <mxGeometry width="50" height="50" relative="1" as="geometry">
            <mxPoint as="sourcePoint" />
            <mxPoint x="30" as="targetPoint" />
          </mxGeometry>
        </mxCell>
        <mxCell id="8" value="" style="endArrow=none;html=1;" parent="10" edge="1">
          <mxGeometry width="50" height="50" relative="1" as="geometry">
            <mxPoint y="10" as="sourcePoint" />
            <mxPoint x="30" y="10" as="targetPoint" />
          </mxGeometry>
        </mxCell>
        <mxCell id="9" value="" style="endArrow=none;html=1;" parent="10" edge="1">
          <mxGeometry width="50" height="50" relative="1" as="geometry">
            <mxPoint y="20" as="sourcePoint" />
            <mxPoint x="30" y="20" as="targetPoint" />
          </mxGeometry>
        </mxCell>
        <mxCell id="12" value="ZEN" style="rounded=0;whiteSpace=wrap;html=1;" parent="28" vertex="1">
          <mxGeometry width="220" height="30" as="geometry" />
        </mxCell>
        <mxCell id="14" value="" style="shape=note;whiteSpace=wrap;html=1;backgroundOutline=1;darkOpacity=0.05;size=10;" parent="28" vertex="1">
          <mxGeometry x="190" y="40" width="20" height="25" as="geometry" />
        </mxCell>
        <mxCell id="15" value="Type to chat with ZEN" style="rounded=1;whiteSpace=wrap;html=1;align=left;" parent="28" vertex="1">
          <mxGeometry x="10" y="430" width="170" height="20" as="geometry" />
        </mxCell>
        <mxCell id="22" value="" style="group" parent="28" vertex="1" connectable="0">
          <mxGeometry x="190" y="427.5" width="25" height="25" as="geometry" />
        </mxCell>
        <mxCell id="18" value="" style="ellipse;whiteSpace=wrap;html=1;aspect=fixed;" parent="22" vertex="1">
          <mxGeometry width="25" height="25" as="geometry" />
        </mxCell>
        <mxCell id="20" value="" style="triangle;whiteSpace=wrap;html=1;rotation=-90;" parent="22" vertex="1">
          <mxGeometry x="6.25" y="4.166666666666667" width="12.5" height="15.625" as="geometry" />
        </mxCell>
        <mxCell id="29" value="" style="group" parent="1" vertex="1" connectable="0">
          <mxGeometry x="-180" y="110" width="220" height="460" as="geometry" />
        </mxCell>
        <mxCell id="30" value="" style="rounded=0;whiteSpace=wrap;html=1;" parent="29" vertex="1">
          <mxGeometry width="220" height="460" as="geometry" />
        </mxCell>
        <mxCell id="31" value="Mic icon" style="ellipse;whiteSpace=wrap;html=1;" parent="29" vertex="1">
          <mxGeometry x="70" y="220" width="80" height="80" as="geometry" />
        </mxCell>
        <mxCell id="32" value="&lt;font style=&quot;color: rgb(102, 102, 102);&quot;&gt;Tab to speak to ZEN&lt;/font&gt;" style="text;html=1;align=center;verticalAlign=middle;whiteSpace=wrap;rounded=0;" parent="29" vertex="1">
          <mxGeometry y="300" width="220" height="40" as="geometry" />
        </mxCell>
        <mxCell id="37" value="ZEN" style="rounded=0;whiteSpace=wrap;html=1;" parent="29" vertex="1">
          <mxGeometry width="220" height="30" as="geometry" />
        </mxCell>
        <mxCell id="38" value="" style="shape=note;whiteSpace=wrap;html=1;backgroundOutline=1;darkOpacity=0.05;size=10;" parent="29" vertex="1">
          <mxGeometry x="190" y="40" width="20" height="25" as="geometry" />
        </mxCell>
        <mxCell id="39" value="Type to chat with ZEN" style="rounded=1;whiteSpace=wrap;html=1;align=left;" parent="29" vertex="1">
          <mxGeometry x="10" y="430" width="170" height="20" as="geometry" />
        </mxCell>
        <mxCell id="40" value="" style="group" parent="29" vertex="1" connectable="0">
          <mxGeometry x="190" y="427.5" width="25" height="25" as="geometry" />
        </mxCell>
        <mxCell id="41" value="" style="ellipse;whiteSpace=wrap;html=1;aspect=fixed;" parent="40" vertex="1">
          <mxGeometry width="25" height="25" as="geometry" />
        </mxCell>
        <mxCell id="42" value="" style="triangle;whiteSpace=wrap;html=1;rotation=-90;" parent="40" vertex="1">
          <mxGeometry x="6.25" y="4.166666666666667" width="12.5" height="15.625" as="geometry" />
        </mxCell>
        <mxCell id="43" value="" style="rounded=0;whiteSpace=wrap;html=1;" parent="1" vertex="1">
          <mxGeometry x="-180" y="140" width="140" height="430" as="geometry" />
        </mxCell>
        <mxCell id="46" value="Search" style="rounded=1;whiteSpace=wrap;html=1;" parent="1" vertex="1">
          <mxGeometry x="-170" y="150" width="120" height="15" as="geometry" />
        </mxCell>
        <mxCell id="47" value="Test Chat about som..." style="text;html=1;align=left;verticalAlign=middle;whiteSpace=wrap;rounded=0;" parent="1" vertex="1">
          <mxGeometry x="-170" y="170" width="140" height="20" as="geometry" />
        </mxCell>
        <mxCell id="48" value="Test Chat about som..." style="text;html=1;align=left;verticalAlign=middle;whiteSpace=wrap;rounded=0;" parent="1" vertex="1">
          <mxGeometry x="-170" y="190" width="140" height="20" as="geometry" />
        </mxCell>
        <mxCell id="49" value="Test Chat about som..." style="text;html=1;align=left;verticalAlign=middle;whiteSpace=wrap;rounded=0;" parent="1" vertex="1">
          <mxGeometry x="-170" y="210" width="140" height="20" as="geometry" />
        </mxCell>
        <mxCell id="50" value="Test Chat about som..." style="text;html=1;align=left;verticalAlign=middle;whiteSpace=wrap;rounded=0;" parent="1" vertex="1">
          <mxGeometry x="-170" y="230" width="140" height="20" as="geometry" />
        </mxCell>
        <mxCell id="51" value="Test Chat about som..." style="text;html=1;align=left;verticalAlign=middle;whiteSpace=wrap;rounded=0;" parent="1" vertex="1">
          <mxGeometry x="-170" y="250" width="140" height="20" as="geometry" />
        </mxCell>
        <mxCell id="52" value="Test Chat about som..." style="text;html=1;align=left;verticalAlign=middle;whiteSpace=wrap;rounded=0;" parent="1" vertex="1">
          <mxGeometry x="-170" y="270" width="140" height="20" as="geometry" />
        </mxCell>
        <mxCell id="53" value="Test Chat about som..." style="text;html=1;align=left;verticalAlign=middle;whiteSpace=wrap;rounded=0;" parent="1" vertex="1">
          <mxGeometry x="-170" y="290" width="140" height="20" as="geometry" />
        </mxCell>
        <mxCell id="54" value="Test Chat about som..." style="text;html=1;align=left;verticalAlign=middle;whiteSpace=wrap;rounded=0;" parent="1" vertex="1">
          <mxGeometry x="-170" y="310" width="140" height="20" as="geometry" />
        </mxCell>
        <mxCell id="55" value="Test Chat about som..." style="text;html=1;align=left;verticalAlign=middle;whiteSpace=wrap;rounded=0;" parent="1" vertex="1">
          <mxGeometry x="-170" y="330" width="140" height="20" as="geometry" />
        </mxCell>
        <mxCell id="56" value="Test Chat about som..." style="text;html=1;align=left;verticalAlign=middle;whiteSpace=wrap;rounded=0;" parent="1" vertex="1">
          <mxGeometry x="-170" y="350" width="140" height="20" as="geometry" />
        </mxCell>
        <mxCell id="57" value="Test Chat about som..." style="text;html=1;align=left;verticalAlign=middle;whiteSpace=wrap;rounded=0;" parent="1" vertex="1">
          <mxGeometry x="-170" y="370" width="140" height="20" as="geometry" />
        </mxCell>
        <mxCell id="58" value="Test Chat about som..." style="text;html=1;align=left;verticalAlign=middle;whiteSpace=wrap;rounded=0;" parent="1" vertex="1">
          <mxGeometry x="-170" y="390" width="140" height="20" as="geometry" />
        </mxCell>
        <mxCell id="59" value="Test Chat about som..." style="text;html=1;align=left;verticalAlign=middle;whiteSpace=wrap;rounded=0;" parent="1" vertex="1">
          <mxGeometry x="-170" y="410" width="140" height="20" as="geometry" />
        </mxCell>
        <mxCell id="61" value="" style="shape=flexArrow;endArrow=classic;html=1;exitX=0.005;exitY=0.108;exitDx=0;exitDy=0;exitPerimeter=0;entryX=1;entryY=0.108;entryDx=0;entryDy=0;entryPerimeter=0;" parent="1" source="2" target="30" edge="1">
          <mxGeometry width="50" height="50" relative="1" as="geometry">
            <mxPoint x="100" y="200" as="sourcePoint" />
            <mxPoint x="150" y="150" as="targetPoint" />
          </mxGeometry>
        </mxCell>
        <mxCell id="62" value="Android layout | drawer opend" style="text;html=1;align=center;verticalAlign=middle;whiteSpace=wrap;rounded=0;" parent="1" vertex="1">
          <mxGeometry x="-182.5" y="60" width="225" height="30" as="geometry" />
        </mxCell>
        <mxCell id="63" value="" style="ellipse;whiteSpace=wrap;html=1;aspect=fixed;" parent="1" vertex="1">
          <mxGeometry x="-175" y="535" width="30" height="30" as="geometry" />
        </mxCell>
        <mxCell id="64" value="" style="shape=actor;whiteSpace=wrap;html=1;" parent="1" vertex="1">
          <mxGeometry x="-170" y="538" width="19.74" height="25" as="geometry" />
        </mxCell>
        <mxCell id="67" value="" style="group" parent="1" vertex="1" connectable="0">
          <mxGeometry x="-140" y="537" width="60" height="25.5" as="geometry" />
        </mxCell>
        <mxCell id="65" value="Test User" style="text;html=1;align=left;verticalAlign=middle;whiteSpace=wrap;rounded=0;" parent="67" vertex="1">
          <mxGeometry width="60" height="20" as="geometry" />
        </mxCell>
        <mxCell id="66" value="&lt;font style=&quot;font-size: 4px;&quot;&gt;Some interesting informations&lt;/font&gt;" style="text;html=1;align=left;verticalAlign=middle;whiteSpace=wrap;rounded=0;" parent="67" vertex="1">
          <mxGeometry y="5.5" width="60" height="20" as="geometry" />
        </mxCell>
        <mxCell id="NYI2xwnep8h8GBdLDny2-67" style="edgeStyle=none;html=1;exitX=0.5;exitY=1;exitDx=0;exitDy=0;" edge="1" target="NYI2xwnep8h8GBdLDny2-69" parent="1" source="NYI2xwnep8h8GBdLDny2-82">
          <mxGeometry relative="1" as="geometry">
            <mxPoint x="635" y="100" as="sourcePoint" />
          </mxGeometry>
        </mxCell>
        <mxCell id="NYI2xwnep8h8GBdLDny2-68" value="" style="group" vertex="1" connectable="0" parent="1">
          <mxGeometry x="530" y="125" width="220" height="460" as="geometry" />
        </mxCell>
        <mxCell id="NYI2xwnep8h8GBdLDny2-69" value="" style="rounded=0;whiteSpace=wrap;html=1;" vertex="1" parent="NYI2xwnep8h8GBdLDny2-68">
          <mxGeometry width="220" height="460" as="geometry" />
        </mxCell>
        <mxCell id="NYI2xwnep8h8GBdLDny2-72" value="" style="group" vertex="1" connectable="0" parent="NYI2xwnep8h8GBdLDny2-68">
          <mxGeometry x="10" y="40" width="30" height="20" as="geometry" />
        </mxCell>
        <mxCell id="NYI2xwnep8h8GBdLDny2-73" value="" style="endArrow=none;html=1;" edge="1" parent="NYI2xwnep8h8GBdLDny2-72">
          <mxGeometry width="50" height="50" relative="1" as="geometry">
            <mxPoint as="sourcePoint" />
            <mxPoint x="30" as="targetPoint" />
          </mxGeometry>
        </mxCell>
        <mxCell id="NYI2xwnep8h8GBdLDny2-74" value="" style="endArrow=none;html=1;" edge="1" parent="NYI2xwnep8h8GBdLDny2-72">
          <mxGeometry width="50" height="50" relative="1" as="geometry">
            <mxPoint y="10" as="sourcePoint" />
            <mxPoint x="30" y="10" as="targetPoint" />
          </mxGeometry>
        </mxCell>
        <mxCell id="NYI2xwnep8h8GBdLDny2-75" value="" style="endArrow=none;html=1;" edge="1" parent="NYI2xwnep8h8GBdLDny2-72">
          <mxGeometry width="50" height="50" relative="1" as="geometry">
            <mxPoint y="20" as="sourcePoint" />
            <mxPoint x="30" y="20" as="targetPoint" />
          </mxGeometry>
        </mxCell>
        <mxCell id="NYI2xwnep8h8GBdLDny2-76" value="ZEN" style="rounded=0;whiteSpace=wrap;html=1;" vertex="1" parent="NYI2xwnep8h8GBdLDny2-68">
          <mxGeometry width="220" height="30" as="geometry" />
        </mxCell>
        <mxCell id="NYI2xwnep8h8GBdLDny2-77" value="" style="shape=note;whiteSpace=wrap;html=1;backgroundOutline=1;darkOpacity=0.05;size=10;" vertex="1" parent="NYI2xwnep8h8GBdLDny2-68">
          <mxGeometry x="190" y="40" width="20" height="25" as="geometry" />
        </mxCell>
        <mxCell id="NYI2xwnep8h8GBdLDny2-78" value="Type to chat with ZEN" style="rounded=1;whiteSpace=wrap;html=1;align=left;" vertex="1" parent="NYI2xwnep8h8GBdLDny2-68">
          <mxGeometry x="10" y="430" width="170" height="20" as="geometry" />
        </mxCell>
        <mxCell id="NYI2xwnep8h8GBdLDny2-79" value="" style="group" vertex="1" connectable="0" parent="NYI2xwnep8h8GBdLDny2-68">
          <mxGeometry x="190" y="427.5" width="25" height="25" as="geometry" />
        </mxCell>
        <mxCell id="NYI2xwnep8h8GBdLDny2-80" value="" style="ellipse;whiteSpace=wrap;html=1;aspect=fixed;" vertex="1" parent="NYI2xwnep8h8GBdLDny2-79">
          <mxGeometry width="25" height="25" as="geometry" />
        </mxCell>
        <mxCell id="NYI2xwnep8h8GBdLDny2-81" value="" style="triangle;whiteSpace=wrap;html=1;rotation=-90;" vertex="1" parent="NYI2xwnep8h8GBdLDny2-79">
          <mxGeometry x="6.25" y="4.166666666666667" width="12.5" height="15.625" as="geometry" />
        </mxCell>
        <mxCell id="NYI2xwnep8h8GBdLDny2-83" value="" style="rounded=1;whiteSpace=wrap;html=1;" vertex="1" parent="NYI2xwnep8h8GBdLDny2-68">
          <mxGeometry x="10" y="40" width="200" height="380" as="geometry" />
        </mxCell>
        <mxCell id="NYI2xwnep8h8GBdLDny2-84" value="" style="endArrow=none;html=1;rounded=0;" edge="1" parent="NYI2xwnep8h8GBdLDny2-68">
          <mxGeometry width="50" height="50" relative="1" as="geometry">
            <mxPoint x="30" y="90" as="sourcePoint" />
            <mxPoint x="190" y="90" as="targetPoint" />
          </mxGeometry>
        </mxCell>
        <mxCell id="NYI2xwnep8h8GBdLDny2-85" value="&lt;font style=&quot;font-size: 17px;&quot;&gt;Settings&lt;/font&gt;" style="text;html=1;align=center;verticalAlign=middle;whiteSpace=wrap;rounded=0;" vertex="1" parent="NYI2xwnep8h8GBdLDny2-68">
          <mxGeometry x="50" y="54" width="120" height="30" as="geometry" />
        </mxCell>
        <mxCell id="NYI2xwnep8h8GBdLDny2-86" value="" style="ellipse;whiteSpace=wrap;html=1;aspect=fixed;" vertex="1" parent="NYI2xwnep8h8GBdLDny2-68">
          <mxGeometry x="20" y="103" width="45" height="45" as="geometry" />
        </mxCell>
        <mxCell id="NYI2xwnep8h8GBdLDny2-87" value="&lt;div align=&quot;left&quot;&gt;Username&lt;/div&gt;" style="text;html=1;align=left;verticalAlign=middle;whiteSpace=wrap;rounded=0;" vertex="1" parent="NYI2xwnep8h8GBdLDny2-68">
          <mxGeometry x="73" y="103" width="100" height="20" as="geometry" />
        </mxCell>
        <mxCell id="NYI2xwnep8h8GBdLDny2-88" value="" style="html=1;dashed=0;aspect=fixed;verticalLabelPosition=bottom;verticalAlign=top;align=center;shape=mxgraph.gmdl.edit;strokeColor=none;fillColor=#000000;shadow=0;sketch=0;" vertex="1" parent="NYI2xwnep8h8GBdLDny2-68">
          <mxGeometry x="50" y="103" width="15" height="15" as="geometry" />
        </mxCell>
        <mxCell id="NYI2xwnep8h8GBdLDny2-90" value="Username.email" style="text;html=1;align=left;verticalAlign=middle;whiteSpace=wrap;rounded=0;" vertex="1" parent="NYI2xwnep8h8GBdLDny2-68">
          <mxGeometry x="73" y="123" width="100" height="20" as="geometry" />
        </mxCell>
        <mxCell id="NYI2xwnep8h8GBdLDny2-91" value="&lt;div align=&quot;left&quot;&gt;Themes:&lt;/div&gt;" style="text;html=1;align=left;verticalAlign=middle;whiteSpace=wrap;rounded=0;" vertex="1" parent="NYI2xwnep8h8GBdLDny2-68">
          <mxGeometry x="20" y="165" width="60" height="30" as="geometry" />
        </mxCell>
        <mxCell id="NYI2xwnep8h8GBdLDny2-92" value="" style="ellipse;whiteSpace=wrap;html=1;aspect=fixed;" vertex="1" parent="NYI2xwnep8h8GBdLDny2-68">
          <mxGeometry x="20" y="229" width="40" height="40" as="geometry" />
        </mxCell>
        <mxCell id="NYI2xwnep8h8GBdLDny2-93" value="" style="ellipse;whiteSpace=wrap;html=1;aspect=fixed;" vertex="1" parent="NYI2xwnep8h8GBdLDny2-68">
          <mxGeometry x="65" y="229" width="40" height="40" as="geometry" />
        </mxCell>
        <mxCell id="NYI2xwnep8h8GBdLDny2-94" value="" style="ellipse;whiteSpace=wrap;html=1;aspect=fixed;" vertex="1" parent="NYI2xwnep8h8GBdLDny2-68">
          <mxGeometry x="110" y="229" width="40" height="40" as="geometry" />
        </mxCell>
        <mxCell id="NYI2xwnep8h8GBdLDny2-95" value="" style="ellipse;whiteSpace=wrap;html=1;aspect=fixed;" vertex="1" parent="NYI2xwnep8h8GBdLDny2-68">
          <mxGeometry x="160" y="229" width="40" height="40" as="geometry" />
        </mxCell>
        <mxCell id="NYI2xwnep8h8GBdLDny2-97" value="Dark" style="rounded=1;whiteSpace=wrap;html=1;" vertex="1" parent="NYI2xwnep8h8GBdLDny2-68">
          <mxGeometry x="22.5" y="195" width="70" height="25" as="geometry" />
        </mxCell>
        <mxCell id="NYI2xwnep8h8GBdLDny2-98" value="Lightmode" style="rounded=1;whiteSpace=wrap;html=1;" vertex="1" parent="NYI2xwnep8h8GBdLDny2-68">
          <mxGeometry x="120" y="195" width="70" height="25" as="geometry" />
        </mxCell>
        <mxCell id="NYI2xwnep8h8GBdLDny2-99" value="" style="ellipse;whiteSpace=wrap;html=1;aspect=fixed;" vertex="1" parent="NYI2xwnep8h8GBdLDny2-68">
          <mxGeometry x="20" y="272" width="40" height="40" as="geometry" />
        </mxCell>
        <mxCell id="NYI2xwnep8h8GBdLDny2-100" value="" style="ellipse;whiteSpace=wrap;html=1;aspect=fixed;" vertex="1" parent="NYI2xwnep8h8GBdLDny2-68">
          <mxGeometry x="65" y="272" width="40" height="40" as="geometry" />
        </mxCell>
        <mxCell id="NYI2xwnep8h8GBdLDny2-101" value="" style="ellipse;whiteSpace=wrap;html=1;aspect=fixed;" vertex="1" parent="NYI2xwnep8h8GBdLDny2-68">
          <mxGeometry x="110" y="272" width="40" height="40" as="geometry" />
        </mxCell>
        <mxCell id="NYI2xwnep8h8GBdLDny2-102" value="" style="ellipse;whiteSpace=wrap;html=1;aspect=fixed;" vertex="1" parent="NYI2xwnep8h8GBdLDny2-68">
          <mxGeometry x="160" y="272" width="40" height="40" as="geometry" />
        </mxCell>
        <mxCell id="NYI2xwnep8h8GBdLDny2-82" value="Settings" style="text;html=1;align=center;verticalAlign=middle;whiteSpace=wrap;rounded=0;" vertex="1" parent="1">
          <mxGeometry x="527.5" y="60" width="225" height="30" as="geometry" />
        </mxCell>
      </root>
    </mxGraphModel>
  </diagram>
</mxfile>
